<svg width="850" height="89" viewBox="0 0 850 89" fill="none" xmlns="http://www.w3.org/2000/svg">
<g filter="url(#filter0_d_6_5)">
<mask id="path-1-outside-1_6_5" maskUnits="userSpaceOnUse" x="8" y="0" width="835" height="71" fill="black">
<rect fill="white" x="8" width="835" height="71"/>
<path d="M109.66 65.872V70H73.8521L59.7401 24.016H58.9721L44.8601 70H9.05209V65.872H32.1881L10.2041 2.89599H22.3961L39.2921 51.184L54.2681 2.89599H64.4441L79.4201 51.184L96.3161 2.89599H108.508L86.5241 65.872H109.66ZM187.525 65.872V70H166.117L159.397 54.736H125.797L119.077 70H97.6689V65.872H108.805L136.549 2.89599H148.645L176.389 65.872H187.525ZM154.789 44.272L142.597 16.624L130.405 44.272H154.789ZM198.07 65.872V43.504L173.11 2.89599H185.494L203.83 33.424L222.166 2.89599H234.55L209.59 43.504V65.872H233.782V70H173.878V65.872H198.07ZM260.611 65.872V70H234.307V65.872H260.611ZM319.158 65.872V70H261.174V65.872H284.502V13.264H264.15V2.89599H316.182V13.264H295.83V65.872H319.158ZM398.492 65.872V70H317.852V65.872H339.836C334.588 62.864 330.428 58.736 327.356 53.488C324.348 48.24 322.844 42.384 322.844 35.92C322.844 26.064 326.236 17.84 333.02 11.248C339.804 4.592 348.188 1.264 358.172 1.264C368.156 1.264 376.54 4.592 383.324 11.248C390.108 17.84 393.5 26.064 393.5 35.92C393.5 42.32 391.964 48.176 388.892 53.488C385.884 58.8 381.756 62.928 376.508 65.872H398.492ZM374.972 18.736C370.428 14 364.828 11.632 358.172 11.632C351.516 11.632 345.884 14 341.276 18.736C336.732 23.472 334.46 29.232 334.46 36.016C334.46 42.736 336.732 48.464 341.276 53.2C345.884 57.936 351.516 60.304 358.172 60.304C364.828 60.304 370.428 57.936 374.972 53.2C379.58 48.464 381.884 42.736 381.884 36.016C381.884 29.232 379.58 23.472 374.972 18.736ZM425.304 65.872V70H399V65.872H425.304ZM520.234 65.872V70H499.594V17.584L476.17 64.144H469.834L446.506 17.584V70H425.866V65.872H435.178V2.89599H452.842L473.098 45.04L493.354 2.89599H510.922V65.872H520.234ZM601.339 65.872V70H579.931L573.211 54.736H539.611L532.891 70H511.483V65.872H522.619L550.363 2.89599H562.459L590.203 65.872H601.339ZM568.603 44.272L556.411 16.624L544.219 44.272H568.603ZM664.856 65.872V70H644.12L628.088 47.44H613.208V70H592.568V65.872H601.88V2.89599H626.84C637.08 2.89599 644.408 4.62399 648.824 8.08C653.24 11.536 655.448 17.072 655.448 24.688C655.448 35.76 650.616 42.736 640.952 45.616L655.544 65.872H664.856ZM627.32 37.168C633.72 37.168 638.072 36.176 640.376 34.192C642.68 32.208 643.832 29.04 643.832 24.688C643.832 20.272 642.648 17.264 640.28 15.664C637.912 14 633.688 13.168 627.608 13.168H613.208V37.168H627.32ZM672.246 65.872V2.89599H683.574V65.872H692.886V70H662.934V65.872H672.246ZM702.675 65.872V2.89599H714.003L752.979 53.008V2.89599H764.307V65.872H773.619V70H752.019L714.003 21.04V70H693.363V65.872H702.675ZM783.447 65.872V2.89599H830.583V13.552H794.775V31.312H826.935V41.392H794.775V59.344H831.735V65.872H841.047V70H774.135V65.872H783.447Z"/>
</mask>
<path d="M109.66 65.872V70H73.8521L59.7401 24.016H58.9721L44.8601 70H9.05209V65.872H32.1881L10.2041 2.89599H22.3961L39.2921 51.184L54.2681 2.89599H64.4441L79.4201 51.184L96.3161 2.89599H108.508L86.5241 65.872H109.66ZM187.525 65.872V70H166.117L159.397 54.736H125.797L119.077 70H97.6689V65.872H108.805L136.549 2.89599H148.645L176.389 65.872H187.525ZM154.789 44.272L142.597 16.624L130.405 44.272H154.789ZM198.07 65.872V43.504L173.11 2.89599H185.494L203.83 33.424L222.166 2.89599H234.55L209.59 43.504V65.872H233.782V70H173.878V65.872H198.07ZM260.611 65.872V70H234.307V65.872H260.611ZM319.158 65.872V70H261.174V65.872H284.502V13.264H264.15V2.89599H316.182V13.264H295.83V65.872H319.158ZM398.492 65.872V70H317.852V65.872H339.836C334.588 62.864 330.428 58.736 327.356 53.488C324.348 48.24 322.844 42.384 322.844 35.92C322.844 26.064 326.236 17.84 333.02 11.248C339.804 4.592 348.188 1.264 358.172 1.264C368.156 1.264 376.54 4.592 383.324 11.248C390.108 17.84 393.5 26.064 393.5 35.92C393.5 42.32 391.964 48.176 388.892 53.488C385.884 58.8 381.756 62.928 376.508 65.872H398.492ZM374.972 18.736C370.428 14 364.828 11.632 358.172 11.632C351.516 11.632 345.884 14 341.276 18.736C336.732 23.472 334.46 29.232 334.46 36.016C334.46 42.736 336.732 48.464 341.276 53.2C345.884 57.936 351.516 60.304 358.172 60.304C364.828 60.304 370.428 57.936 374.972 53.2C379.58 48.464 381.884 42.736 381.884 36.016C381.884 29.232 379.58 23.472 374.972 18.736ZM425.304 65.872V70H399V65.872H425.304ZM520.234 65.872V70H499.594V17.584L476.17 64.144H469.834L446.506 17.584V70H425.866V65.872H435.178V2.89599H452.842L473.098 45.04L493.354 2.89599H510.922V65.872H520.234ZM601.339 65.872V70H579.931L573.211 54.736H539.611L532.891 70H511.483V65.872H522.619L550.363 2.89599H562.459L590.203 65.872H601.339ZM568.603 44.272L556.411 16.624L544.219 44.272H568.603ZM664.856 65.872V70H644.12L628.088 47.44H613.208V70H592.568V65.872H601.88V2.89599H626.84C637.08 2.89599 644.408 4.62399 648.824 8.08C653.24 11.536 655.448 17.072 655.448 24.688C655.448 35.76 650.616 42.736 640.952 45.616L655.544 65.872H664.856ZM627.32 37.168C633.72 37.168 638.072 36.176 640.376 34.192C642.68 32.208 643.832 29.04 643.832 24.688C643.832 20.272 642.648 17.264 640.28 15.664C637.912 14 633.688 13.168 627.608 13.168H613.208V37.168H627.32ZM672.246 65.872V2.89599H683.574V65.872H692.886V70H662.934V65.872H672.246ZM702.675 65.872V2.89599H714.003L752.979 53.008V2.89599H764.307V65.872H773.619V70H752.019L714.003 21.04V70H693.363V65.872H702.675ZM783.447 65.872V2.89599H830.583V13.552H794.775V31.312H826.935V41.392H794.775V59.344H831.735V65.872H841.047V70H774.135V65.872H783.447Z" fill="url(#paint0_linear_6_5)" shape-rendering="crispEdges"/>
<path d="M109.66 65.872H110.66V64.872H109.66V65.872ZM109.66 70V71H110.66V70H109.66ZM73.8521 70L72.8961 70.2934L73.1129 71H73.8521V70ZM59.7401 24.016L60.6961 23.7226L60.4792 23.016H59.7401V24.016ZM58.9721 24.016V23.016H58.233L58.0161 23.7226L58.9721 24.016ZM44.8601 70V71H45.5992L45.8161 70.2934L44.8601 70ZM9.05209 70H8.05209V71H9.05209V70ZM9.05209 65.872V64.872H8.05209V65.872H9.05209ZM32.1881 65.872V66.872H33.5964L33.1322 65.5424L32.1881 65.872ZM10.2041 2.89599V1.89599H8.79583L9.25996 3.22557L10.2041 2.89599ZM22.3961 2.89599L23.34 2.56573L23.1056 1.89599H22.3961V2.89599ZM39.2921 51.184L38.3482 51.5143L39.3493 54.3754L40.2472 51.4802L39.2921 51.184ZM54.2681 2.89599V1.89599H53.5312L53.313 2.59977L54.2681 2.89599ZM64.4441 2.89599L65.3992 2.59977L65.1809 1.89599H64.4441V2.89599ZM79.4201 51.184L78.465 51.4802L79.3629 54.3754L80.364 51.5143L79.4201 51.184ZM96.3161 2.89599V1.89599H95.6066L95.3722 2.56573L96.3161 2.89599ZM108.508 2.89599L109.452 3.22557L109.916 1.89599H108.508V2.89599ZM86.5241 65.872L85.58 65.5424L85.1158 66.872H86.5241V65.872ZM109.66 65.872H108.66V70H109.66H110.66V65.872H109.66ZM109.66 70V69H73.8521V70V71H109.66V70ZM73.8521 70L74.8081 69.7066L60.6961 23.7226L59.7401 24.016L58.7841 24.3094L72.8961 70.2934L73.8521 70ZM59.7401 24.016V23.016H58.9721V24.016V25.016H59.7401V24.016ZM58.9721 24.016L58.0161 23.7226L43.9041 69.7066L44.8601 70L45.8161 70.2934L59.9281 24.3094L58.9721 24.016ZM44.8601 70V69H9.05209V70V71H44.8601V70ZM9.05209 70H10.0521V65.872H9.05209H8.05209V70H9.05209ZM9.05209 65.872V66.872H32.1881V65.872V64.872H9.05209V65.872ZM32.1881 65.872L33.1322 65.5424L11.1482 2.56641L10.2041 2.89599L9.25996 3.22557L31.244 66.2016L32.1881 65.872ZM10.2041 2.89599V3.89599H22.3961V2.89599V1.89599H10.2041V2.89599ZM22.3961 2.89599L21.4522 3.22626L38.3482 51.5143L39.2921 51.184L40.236 50.8537L23.34 2.56573L22.3961 2.89599ZM39.2921 51.184L40.2472 51.4802L55.2232 3.19221L54.2681 2.89599L53.313 2.59977L38.337 50.8878L39.2921 51.184ZM54.2681 2.89599V3.89599H64.4441V2.89599V1.89599H54.2681V2.89599ZM64.4441 2.89599L63.489 3.19221L78.465 51.4802L79.4201 51.184L80.3752 50.8878L65.3992 2.59977L64.4441 2.89599ZM79.4201 51.184L80.364 51.5143L97.26 3.22626L96.3161 2.89599L95.3722 2.56573L78.4762 50.8537L79.4201 51.184ZM96.3161 2.89599V3.89599H108.508V2.89599V1.89599H96.3161V2.89599ZM108.508 2.89599L107.564 2.56641L85.58 65.5424L86.5241 65.872L87.4682 66.2016L109.452 3.22557L108.508 2.89599ZM86.5241 65.872V66.872H109.66V65.872V64.872H86.5241V65.872ZM187.525 65.872H188.525V64.872H187.525V65.872ZM187.525 70V71H188.525V70H187.525ZM166.117 70L165.202 70.4029L165.465 71H166.117V70ZM159.397 54.736L160.312 54.3331L160.049 53.736H159.397V54.736ZM125.797 54.736V53.736H125.145L124.882 54.3331L125.797 54.736ZM119.077 70V71H119.729L119.992 70.4029L119.077 70ZM97.6689 70H96.6689V71H97.6689V70ZM97.6689 65.872V64.872H96.6689V65.872H97.6689ZM108.805 65.872V66.872H109.457L109.72 66.2752L108.805 65.872ZM136.549 2.89599V1.89599H135.897L135.634 2.49283L136.549 2.89599ZM148.645 2.89599L149.56 2.49283L149.297 1.89599H148.645V2.89599ZM176.389 65.872L175.474 66.2752L175.737 66.872H176.389V65.872ZM154.789 44.272V45.272H156.323L155.704 43.8685L154.789 44.272ZM142.597 16.624L143.512 16.2205L142.597 14.1456L141.682 16.2205L142.597 16.624ZM130.405 44.272L129.49 43.8685L128.871 45.272H130.405V44.272ZM187.525 65.872H186.525V70H187.525H188.525V65.872H187.525ZM187.525 70V69H166.117V70V71H187.525V70ZM166.117 70L167.032 69.5971L160.312 54.3331L159.397 54.736L158.482 55.1389L165.202 70.4029L166.117 70ZM159.397 54.736V53.736H125.797V54.736V55.736H159.397V54.736ZM125.797 54.736L124.882 54.3331L118.162 69.5971L119.077 70L119.992 70.4029L126.712 55.1389L125.797 54.736ZM119.077 70V69H97.6689V70V71H119.077V70ZM97.6689 70H98.6689V65.872H97.6689H96.6689V70H97.6689ZM97.6689 65.872V66.872H108.805V65.872V64.872H97.6689V65.872ZM108.805 65.872L109.72 66.2752L137.464 3.29915L136.549 2.89599L135.634 2.49283L107.89 65.4688L108.805 65.872ZM136.549 2.89599V3.89599H148.645V2.89599V1.89599H136.549V2.89599ZM148.645 2.89599L147.73 3.29915L175.474 66.2752L176.389 65.872L177.304 65.4688L149.56 2.49283L148.645 2.89599ZM176.389 65.872V66.872H187.525V65.872V64.872H176.389V65.872ZM154.789 44.272L155.704 43.8685L143.512 16.2205L142.597 16.624L141.682 17.0275L153.874 44.6755L154.789 44.272ZM142.597 16.624L141.682 16.2205L129.49 43.8685L130.405 44.272L131.32 44.6755L143.512 17.0275L142.597 16.624ZM130.405 44.272V45.272H154.789V44.272V43.272H130.405V44.272ZM198.07 65.872V66.872H199.07V65.872H198.07ZM198.07 43.504H199.07V43.2212L198.922 42.9803L198.07 43.504ZM173.11 2.89599V1.89599H171.322L172.259 3.41964L173.11 2.89599ZM185.494 2.89599L186.352 2.3811L186.06 1.89599H185.494V2.89599ZM203.83 33.424L202.973 33.9389L203.83 35.3662L204.688 33.9389L203.83 33.424ZM222.166 2.89599V1.89599H221.601L221.309 2.3811L222.166 2.89599ZM234.55 2.89599L235.402 3.41964L236.339 1.89599H234.55V2.89599ZM209.59 43.504L208.739 42.9803L208.59 43.2212V43.504H209.59ZM209.59 65.872H208.59V66.872H209.59V65.872ZM233.782 65.872H234.782V64.872H233.782V65.872ZM233.782 70V71H234.782V70H233.782ZM173.878 70H172.878V71H173.878V70ZM173.878 65.872V64.872H172.878V65.872H173.878ZM198.07 65.872H199.07V43.504H198.07H197.07V65.872H198.07ZM198.07 43.504L198.922 42.9803L173.962 2.37235L173.11 2.89599L172.259 3.41964L197.219 44.0276L198.07 43.504ZM173.11 2.89599V3.89599H185.494V2.89599V1.89599H173.11V2.89599ZM185.494 2.89599L184.637 3.41089L202.973 33.9389L203.83 33.424L204.688 32.9091L186.352 2.3811L185.494 2.89599ZM203.83 33.424L204.688 33.9389L223.024 3.41089L222.166 2.89599L221.309 2.3811L202.973 32.9091L203.83 33.424ZM222.166 2.89599V3.89599H234.55V2.89599V1.89599H222.166V2.89599ZM234.55 2.89599L233.699 2.37235L208.739 42.9803L209.59 43.504L210.442 44.0276L235.402 3.41964L234.55 2.89599ZM209.59 43.504H208.59V65.872H209.59H210.59V43.504H209.59ZM209.59 65.872V66.872H233.782V65.872V64.872H209.59V65.872ZM233.782 65.872H232.782V70H233.782H234.782V65.872H233.782ZM233.782 70V69H173.878V70V71H233.782V70ZM173.878 70H174.878V65.872H173.878H172.878V70H173.878ZM173.878 65.872V66.872H198.07V65.872V64.872H173.878V65.872ZM260.611 65.872H261.611V64.872H260.611V65.872ZM260.611 70V71H261.611V70H260.611ZM234.307 70H233.307V71H234.307V70ZM234.307 65.872V64.872H233.307V65.872H234.307ZM260.611 65.872H259.611V70H260.611H261.611V65.872H260.611ZM260.611 70V69H234.307V70V71H260.611V70ZM234.307 70H235.307V65.872H234.307H233.307V70H234.307ZM234.307 65.872V66.872H260.611V65.872V64.872H234.307V65.872ZM319.158 65.872H320.158V64.872H319.158V65.872ZM319.158 70V71H320.158V70H319.158ZM261.174 70H260.174V71H261.174V70ZM261.174 65.872V64.872H260.174V65.872H261.174ZM284.502 65.872V66.872H285.502V65.872H284.502ZM284.502 13.264H285.502V12.264H284.502V13.264ZM264.15 13.264H263.15V14.264H264.15V13.264ZM264.15 2.89599V1.89599H263.15V2.89599H264.15ZM316.182 2.89599H317.182V1.89599H316.182V2.89599ZM316.182 13.264V14.264H317.182V13.264H316.182ZM295.83 13.264V12.264H294.83V13.264H295.83ZM295.83 65.872H294.83V66.872H295.83V65.872ZM319.158 65.872H318.158V70H319.158H320.158V65.872H319.158ZM319.158 70V69H261.174V70V71H319.158V70ZM261.174 70H262.174V65.872H261.174H260.174V70H261.174ZM261.174 65.872V66.872H284.502V65.872V64.872H261.174V65.872ZM284.502 65.872H285.502V13.264H284.502H283.502V65.872H284.502ZM284.502 13.264V12.264H264.15V13.264V14.264H284.502V13.264ZM264.15 13.264H265.15V2.89599H264.15H263.15V13.264H264.15ZM264.15 2.89599V3.89599H316.182V2.89599V1.89599H264.15V2.89599ZM316.182 2.89599H315.182V13.264H316.182H317.182V2.89599H316.182ZM316.182 13.264V12.264H295.83V13.264V14.264H316.182V13.264ZM295.83 13.264H294.83V65.872H295.83H296.83V13.264H295.83ZM295.83 65.872V66.872H319.158V65.872V64.872H295.83V65.872ZM398.492 65.872H399.492V64.872H398.492V65.872ZM398.492 70V71H399.492V70H398.492ZM317.852 70H316.852V71H317.852V70ZM317.852 65.872V64.872H316.852V65.872H317.852ZM339.836 65.872V66.872H343.592L340.334 65.0044L339.836 65.872ZM327.356 53.488L326.489 53.9853L326.493 53.9932L327.356 53.488ZM333.02 11.248L333.717 11.9652L333.721 11.9618L333.02 11.248ZM383.324 11.248L382.624 11.9618L382.628 11.9652L383.324 11.248ZM388.892 53.488L388.027 52.9874L388.022 52.9953L388.892 53.488ZM376.508 65.872L376.019 64.9999L372.682 66.872H376.508V65.872ZM374.972 18.736L374.251 19.4283L374.256 19.4334L374.972 18.736ZM341.276 18.736L340.56 18.0386L340.555 18.0437L341.276 18.736ZM341.276 53.2L340.555 53.8923L340.56 53.8974L341.276 53.2ZM374.972 53.2L374.256 52.5026L374.251 52.5077L374.972 53.2ZM398.492 65.872H397.492V70H398.492H399.492V65.872H398.492ZM398.492 70V69H317.852V70V71H398.492V70ZM317.852 70H318.852V65.872H317.852H316.852V70H317.852ZM317.852 65.872V66.872H339.836V65.872V64.872H317.852V65.872ZM339.836 65.872L340.334 65.0044C335.238 62.0837 331.204 58.081 328.219 52.9828L327.356 53.488L326.493 53.9932C329.653 59.391 333.939 63.6443 339.339 66.7396L339.836 65.872ZM327.356 53.488L328.224 52.9907C325.309 47.9045 323.844 42.2219 323.844 35.92H322.844H321.844C321.844 42.5461 323.388 48.5755 326.489 53.9853L327.356 53.488ZM322.844 35.92H323.844C323.844 26.3215 327.136 18.3602 333.717 11.9652L333.02 11.248L332.324 10.5308C325.337 17.3198 321.844 25.8065 321.844 35.92H322.844ZM333.02 11.248L333.721 11.9618C340.308 5.49927 348.436 2.264 358.172 2.264V1.264V0.263998C347.941 0.263998 339.301 3.68473 332.32 10.5342L333.02 11.248ZM358.172 1.264V2.264C367.909 2.264 376.037 5.49927 382.624 11.9618L383.324 11.248L384.025 10.5342C377.044 3.68473 368.404 0.263998 358.172 0.263998V1.264ZM383.324 11.248L382.628 11.9652C389.209 18.3602 392.5 26.3215 392.5 35.92H393.5H394.5C394.5 25.8065 391.008 17.3198 384.021 10.5308L383.324 11.248ZM393.5 35.92H392.5C392.5 42.1521 391.007 47.8342 388.027 52.9874L388.892 53.488L389.758 53.9886C392.922 48.5178 394.5 42.4879 394.5 35.92H393.5ZM388.892 53.488L388.022 52.9953C385.103 58.1508 381.106 62.1465 376.019 64.9999L376.508 65.872L376.998 66.7441C382.407 63.7095 386.666 59.4492 389.763 53.9807L388.892 53.488ZM376.508 65.872V66.872H398.492V65.872V64.872H376.508V65.872ZM374.972 18.736L375.694 18.0437C370.958 13.108 365.096 10.632 358.172 10.632V11.632V12.632C364.56 12.632 369.898 14.892 374.251 19.4283L374.972 18.736ZM358.172 11.632V10.632C351.249 10.632 345.358 13.1076 340.56 18.0386L341.276 18.736L341.993 19.4334C346.411 14.8924 351.784 12.632 358.172 12.632V11.632ZM341.276 18.736L340.555 18.0437C335.826 22.9727 333.46 28.9836 333.46 36.016H334.46H335.46C335.46 29.4804 337.639 23.9713 341.998 19.4283L341.276 18.736ZM334.46 36.016H333.46C333.46 42.9872 335.827 48.9652 340.555 53.8923L341.276 53.2L341.998 52.5077C337.637 47.9628 335.46 42.4848 335.46 36.016H334.46ZM341.276 53.2L340.56 53.8974C345.358 58.8284 351.249 61.304 358.172 61.304V60.304V59.304C351.784 59.304 346.411 57.0436 341.993 52.5026L341.276 53.2ZM358.172 60.304V61.304C365.096 61.304 370.958 58.828 375.694 53.8923L374.972 53.2L374.251 52.5077C369.898 57.044 364.56 59.304 358.172 59.304V60.304ZM374.972 53.2L375.689 53.8974C380.482 48.9712 382.884 42.9915 382.884 36.016H381.884H380.884C380.884 42.4805 378.679 47.9568 374.256 52.5026L374.972 53.2ZM381.884 36.016H382.884C382.884 28.9793 380.484 22.9668 375.689 18.0386L374.972 18.736L374.256 19.4334C378.677 23.9772 380.884 29.4847 380.884 36.016H381.884ZM425.304 65.872H426.304V64.872H425.304V65.872ZM425.304 70V71H426.304V70H425.304ZM399 70H398V71H399V70ZM399 65.872V64.872H398V65.872H399ZM425.304 65.872H424.304V70H425.304H426.304V65.872H425.304ZM425.304 70V69H399V70V71H425.304V70ZM399 70H400V65.872H399H398V70H399ZM399 65.872V66.872H425.304V65.872V64.872H399V65.872ZM520.234 65.872H521.234V64.872H520.234V65.872ZM520.234 70V71H521.234V70H520.234ZM499.594 70H498.594V71H499.594V70ZM499.594 17.584H500.594L498.701 17.1346L499.594 17.584ZM476.17 64.144V65.144H476.787L477.064 64.5934L476.17 64.144ZM469.834 64.144L468.94 64.5919L469.217 65.144H469.834V64.144ZM446.506 17.584L447.4 17.136L445.506 17.584H446.506ZM446.506 70V71H447.506V70H446.506ZM425.866 70H424.866V71H425.866V70ZM425.866 65.872V64.872H424.866V65.872H425.866ZM435.178 65.872V66.872H436.178V65.872H435.178ZM435.178 2.89599V1.89599H434.178V2.89599H435.178ZM452.842 2.89599L453.744 2.4628L453.471 1.89599H452.842V2.89599ZM473.098 45.04L472.197 45.4732L473.098 47.3484L474 45.4732L473.098 45.04ZM493.354 2.89599V1.89599H492.725L492.453 2.4628L493.354 2.89599ZM510.922 2.89599H511.922V1.89599H510.922V2.89599ZM510.922 65.872H509.922V66.872H510.922V65.872ZM520.234 65.872H519.234V70H520.234H521.234V65.872H520.234ZM520.234 70V69H499.594V70V71H520.234V70ZM499.594 70H500.594V17.584H499.594H498.594V70H499.594ZM499.594 17.584L498.701 17.1346L475.277 63.6946L476.17 64.144L477.064 64.5934L500.488 18.0334L499.594 17.584ZM476.17 64.144V63.144H469.834V64.144V65.144H476.17V64.144ZM469.834 64.144L470.728 63.696L447.4 17.136L446.506 17.584L445.612 18.032L468.94 64.5919L469.834 64.144ZM446.506 17.584H445.506V70H446.506H447.506V17.584H446.506ZM446.506 70V69H425.866V70V71H446.506V70ZM425.866 70H426.866V65.872H425.866H424.866V70H425.866ZM425.866 65.872V66.872H435.178V65.872V64.872H425.866V65.872ZM435.178 65.872H436.178V2.89599H435.178H434.178V65.872H435.178ZM435.178 2.89599V3.89599H452.842V2.89599V1.89599H435.178V2.89599ZM452.842 2.89599L451.941 3.32919L472.197 45.4732L473.098 45.04L474 44.6068L453.744 2.4628L452.842 2.89599ZM473.098 45.04L474 45.4732L494.256 3.32919L493.354 2.89599L492.453 2.4628L472.197 44.6068L473.098 45.04ZM493.354 2.89599V3.89599H510.922V2.89599V1.89599H493.354V2.89599ZM510.922 2.89599H509.922V65.872H510.922H511.922V2.89599H510.922ZM510.922 65.872V66.872H520.234V65.872V64.872H510.922V65.872ZM601.339 65.872H602.339V64.872H601.339V65.872ZM601.339 70V71H602.339V70H601.339ZM579.931 70L579.016 70.4029L579.279 71H579.931V70ZM573.211 54.736L574.126 54.3331L573.864 53.736H573.211V54.736ZM539.611 54.736V53.736H538.959L538.696 54.3331L539.611 54.736ZM532.891 70V71H533.544L533.806 70.4029L532.891 70ZM511.483 70H510.483V71H511.483V70ZM511.483 65.872V64.872H510.483V65.872H511.483ZM522.619 65.872V66.872H523.271L523.534 66.2752L522.619 65.872ZM550.363 2.89599V1.89599H549.711L549.448 2.49283L550.363 2.89599ZM562.459 2.89599L563.374 2.49283L563.111 1.89599H562.459V2.89599ZM590.203 65.872L589.288 66.2752L589.551 66.872H590.203V65.872ZM568.603 44.272V45.272H570.137L569.518 43.8685L568.603 44.272ZM556.411 16.624L557.326 16.2205L556.411 14.1456L555.496 16.2205L556.411 16.624ZM544.219 44.272L543.304 43.8685L542.685 45.272H544.219V44.272ZM601.339 65.872H600.339V70H601.339H602.339V65.872H601.339ZM601.339 70V69H579.931V70V71H601.339V70ZM579.931 70L580.846 69.5971L574.126 54.3331L573.211 54.736L572.296 55.1389L579.016 70.4029L579.931 70ZM573.211 54.736V53.736H539.611V54.736V55.736H573.211V54.736ZM539.611 54.736L538.696 54.3331L531.976 69.5971L532.891 70L533.806 70.4029L540.526 55.1389L539.611 54.736ZM532.891 70V69H511.483V70V71H532.891V70ZM511.483 70H512.483V65.872H511.483H510.483V70H511.483ZM511.483 65.872V66.872H522.619V65.872V64.872H511.483V65.872ZM522.619 65.872L523.534 66.2752L551.278 3.29915L550.363 2.89599L549.448 2.49283L521.704 65.4688L522.619 65.872ZM550.363 2.89599V3.89599H562.459V2.89599V1.89599H550.363V2.89599ZM562.459 2.89599L561.544 3.29915L589.288 66.2752L590.203 65.872L591.118 65.4688L563.374 2.49283L562.459 2.89599ZM590.203 65.872V66.872H601.339V65.872V64.872H590.203V65.872ZM568.603 44.272L569.518 43.8685L557.326 16.2205L556.411 16.624L555.496 17.0275L567.688 44.6755L568.603 44.272ZM556.411 16.624L555.496 16.2205L543.304 43.8685L544.219 44.272L545.134 44.6755L557.326 17.0275L556.411 16.624ZM544.219 44.272V45.272H568.603V44.272V43.272H544.219V44.272ZM664.856 65.872H665.856V64.872H664.856V65.872ZM664.856 70V71H665.856V70H664.856ZM644.12 70L643.305 70.5793L643.604 71H644.12V70ZM628.088 47.44L628.903 46.8607L628.604 46.44H628.088V47.44ZM613.208 47.44V46.44H612.208V47.44H613.208ZM613.208 70V71H614.208V70H613.208ZM592.568 70H591.568V71H592.568V70ZM592.568 65.872V64.872H591.568V65.872H592.568ZM601.88 65.872V66.872H602.88V65.872H601.88ZM601.88 2.89599V1.89599H600.88V2.89599H601.88ZM640.952 45.616L640.666 44.6576L639.318 45.0593L640.14 46.2005L640.952 45.616ZM655.544 65.872L654.732 66.4565L655.032 66.872H655.544V65.872ZM640.376 34.192L639.723 33.4342V33.4342L640.376 34.192ZM640.28 15.664L639.705 16.4822L639.712 16.4875L639.72 16.4926L640.28 15.664ZM613.208 13.168V12.168H612.208V13.168H613.208ZM613.208 37.168H612.208V38.168H613.208V37.168ZM664.856 65.872H663.856V70H664.856H665.856V65.872H664.856ZM664.856 70V69H644.12V70V71H664.856V70ZM644.12 70L644.935 69.4207L628.903 46.8607L628.088 47.44L627.273 48.0193L643.305 70.5793L644.12 70ZM628.088 47.44V46.44H613.208V47.44V48.44H628.088V47.44ZM613.208 47.44H612.208V70H613.208H614.208V47.44H613.208ZM613.208 70V69H592.568V70V71H613.208V70ZM592.568 70H593.568V65.872H592.568H591.568V70H592.568ZM592.568 65.872V66.872H601.88V65.872V64.872H592.568V65.872ZM601.88 65.872H602.88V2.89599H601.88H600.88V65.872H601.88ZM601.88 2.89599V3.89599H626.84V2.89599V1.89599H601.88V2.89599ZM626.84 2.89599V3.89599C637.018 3.89599 644.062 5.62364 648.207 8.8675L648.824 8.08L649.44 7.29249C644.753 3.62435 637.141 1.89599 626.84 1.89599V2.89599ZM648.824 8.08L648.207 8.8675C652.302 12.0716 654.448 17.2618 654.448 24.688H655.448H656.448C656.448 16.8822 654.178 11.0004 649.44 7.29249L648.824 8.08ZM655.448 24.688H654.448C654.448 30.082 653.271 34.3781 651.002 37.6546C648.738 40.9222 645.323 43.2698 640.666 44.6576L640.952 45.616L641.237 46.5743C646.245 45.0821 650.077 42.5018 652.646 38.7934C655.208 35.0939 656.448 30.366 656.448 24.688H655.448ZM640.952 45.616L640.14 46.2005L654.732 66.4565L655.544 65.872L656.355 65.2875L641.763 45.0315L640.952 45.616ZM655.544 65.872V66.872H664.856V65.872V64.872H655.544V65.872ZM627.32 37.168V38.168C630.565 38.168 633.333 37.9171 635.606 37.399C637.872 36.8825 639.708 36.0863 641.028 34.9498L640.376 34.192L639.723 33.4342C638.739 34.2816 637.247 34.9735 635.161 35.449C633.082 35.9229 630.474 36.168 627.32 36.168V37.168ZM640.376 34.192L641.028 34.9498C643.635 32.7051 644.832 29.2017 644.832 24.688H643.832H642.832C642.832 28.8783 641.724 31.7109 639.723 33.4342L640.376 34.192ZM643.832 24.688H644.832C644.832 20.1288 643.609 16.7067 640.84 14.8354L640.28 15.664L639.72 16.4926C641.686 17.8213 642.832 20.4152 642.832 24.688H643.832ZM640.28 15.664L640.855 14.8458C638.213 12.9897 633.71 12.168 627.608 12.168V13.168V14.168C633.666 14.168 637.61 15.0103 639.705 16.4822L640.28 15.664ZM627.608 13.168V12.168H613.208V13.168V14.168H627.608V13.168ZM613.208 13.168H612.208V37.168H613.208H614.208V13.168H613.208ZM613.208 37.168V38.168H627.32V37.168V36.168H613.208V37.168ZM672.246 65.872V66.872H673.246V65.872H672.246ZM672.246 2.89599V1.89599H671.246V2.89599H672.246ZM683.574 2.89599H684.574V1.89599H683.574V2.89599ZM683.574 65.872H682.574V66.872H683.574V65.872ZM692.886 65.872H693.886V64.872H692.886V65.872ZM692.886 70V71H693.886V70H692.886ZM662.934 70H661.934V71H662.934V70ZM662.934 65.872V64.872H661.934V65.872H662.934ZM672.246 65.872H673.246V2.89599H672.246H671.246V65.872H672.246ZM672.246 2.89599V3.89599H683.574V2.89599V1.89599H672.246V2.89599ZM683.574 2.89599H682.574V65.872H683.574H684.574V2.89599H683.574ZM683.574 65.872V66.872H692.886V65.872V64.872H683.574V65.872ZM692.886 65.872H691.886V70H692.886H693.886V65.872H692.886ZM692.886 70V69H662.934V70V71H692.886V70ZM662.934 70H663.934V65.872H662.934H661.934V70H662.934ZM662.934 65.872V66.872H672.246V65.872V64.872H662.934V65.872ZM702.675 65.872V66.872H703.675V65.872H702.675ZM702.675 2.89599V1.89599H701.675V2.89599H702.675ZM714.003 2.89599L714.792 2.28205L714.492 1.89599H714.003V2.89599ZM752.979 53.008L752.189 53.6219L753.979 55.9225V53.008H752.979ZM752.979 2.89599V1.89599H751.979V2.89599H752.979ZM764.307 2.89599H765.307V1.89599H764.307V2.89599ZM764.307 65.872H763.307V66.872H764.307V65.872ZM773.619 65.872H774.619V64.872H773.619V65.872ZM773.619 70V71H774.619V70H773.619ZM752.019 70L751.229 70.6133L751.529 71H752.019V70ZM714.003 21.04L714.793 20.4267L713.003 18.1216V21.04H714.003ZM714.003 70V71H715.003V70H714.003ZM693.363 70H692.363V71H693.363V70ZM693.363 65.872V64.872H692.363V65.872H693.363ZM702.675 65.872H703.675V2.89599H702.675H701.675V65.872H702.675ZM702.675 2.89599V3.89599H714.003V2.89599V1.89599H702.675V2.89599ZM714.003 2.89599L713.213 3.50994L752.189 53.6219L752.979 53.008L753.768 52.3941L714.792 2.28205L714.003 2.89599ZM752.979 53.008H753.979V2.89599H752.979H751.979V53.008H752.979ZM752.979 2.89599V3.89599H764.307V2.89599V1.89599H752.979V2.89599ZM764.307 2.89599H763.307V65.872H764.307H765.307V2.89599H764.307ZM764.307 65.872V66.872H773.619V65.872V64.872H764.307V65.872ZM773.619 65.872H772.619V70H773.619H774.619V65.872H773.619ZM773.619 70V69H752.019V70V71H773.619V70ZM752.019 70L752.809 69.3867L714.793 20.4267L714.003 21.04L713.213 21.6533L751.229 70.6133L752.019 70ZM714.003 21.04H713.003V70H714.003H715.003V21.04H714.003ZM714.003 70V69H693.363V70V71H714.003V70ZM693.363 70H694.363V65.872H693.363H692.363V70H693.363ZM693.363 65.872V66.872H702.675V65.872V64.872H693.363V65.872ZM783.447 65.872V66.872H784.447V65.872H783.447ZM783.447 2.89599V1.89599H782.447V2.89599H783.447ZM830.583 2.89599H831.583V1.89599H830.583V2.89599ZM830.583 13.552V14.552H831.583V13.552H830.583ZM794.775 13.552V12.552H793.775V13.552H794.775ZM794.775 31.312H793.775V32.312H794.775V31.312ZM826.935 31.312H827.935V30.312H826.935V31.312ZM826.935 41.392V42.392H827.935V41.392H826.935ZM794.775 41.392V40.392H793.775V41.392H794.775ZM794.775 59.344H793.775V60.344H794.775V59.344ZM831.735 59.344H832.735V58.344H831.735V59.344ZM831.735 65.872H830.735V66.872H831.735V65.872ZM841.047 65.872H842.047V64.872H841.047V65.872ZM841.047 70V71H842.047V70H841.047ZM774.135 70H773.135V71H774.135V70ZM774.135 65.872V64.872H773.135V65.872H774.135ZM783.447 65.872H784.447V2.89599H783.447H782.447V65.872H783.447ZM783.447 2.89599V3.89599H830.583V2.89599V1.89599H783.447V2.89599ZM830.583 2.89599H829.583V13.552H830.583H831.583V2.89599H830.583ZM830.583 13.552V12.552H794.775V13.552V14.552H830.583V13.552ZM794.775 13.552H793.775V31.312H794.775H795.775V13.552H794.775ZM794.775 31.312V32.312H826.935V31.312V30.312H794.775V31.312ZM826.935 31.312H825.935V41.392H826.935H827.935V31.312H826.935ZM826.935 41.392V40.392H794.775V41.392V42.392H826.935V41.392ZM794.775 41.392H793.775V59.344H794.775H795.775V41.392H794.775ZM794.775 59.344V60.344H831.735V59.344V58.344H794.775V59.344ZM831.735 59.344H830.735V65.872H831.735H832.735V59.344H831.735ZM831.735 65.872V66.872H841.047V65.872V64.872H831.735V65.872ZM841.047 65.872H840.047V70H841.047H842.047V65.872H841.047ZM841.047 70V69H774.135V70V71H841.047V70ZM774.135 70H775.135V65.872H774.135H773.135V70H774.135ZM774.135 65.872V66.872H783.447V65.872V64.872H774.135V65.872Z" fill="black" fill-opacity="0.25" mask="url(#path-1-outside-1_6_5)"/>
</g>
<defs>
<filter id="filter0_d_6_5" x="0.652093" y="0.264008" width="848.795" height="88.136" filterUnits="userSpaceOnUse" color-interpolation-filters="sRGB">
<feFlood flood-opacity="0" result="BackgroundImageFix"/>
<feColorMatrix in="SourceAlpha" type="matrix" values="0 0 0 0 0 0 0 0 0 0 0 0 0 0 0 0 0 0 127 0" result="hardAlpha"/>
<feOffset dy="10"/>
<feGaussianBlur stdDeviation="3.7"/>
<feComposite in2="hardAlpha" operator="out"/>
<feColorMatrix type="matrix" values="0 0 0 0 0 0 0 0 0 0 0 0 0 0 0 0 0 0 0.25 0"/>
<feBlend mode="normal" in2="BackgroundImageFix" result="effect1_dropShadow_6_5"/>
<feBlend mode="normal" in="SourceGraphic" in2="effect1_dropShadow_6_5" result="shape"/>
</filter>
<linearGradient id="paint0_linear_6_5" x1="423" y1="117.5" x2="423" y2="-8.50001" gradientUnits="userSpaceOnUse">
<stop stop-color="#008EF3"/>
<stop offset="1" stop-color="#9E9E9E"/>
</linearGradient>
</defs>
</svg>
